<svg width="50" height="50" viewBox="0 0 50 50" fill="none" xmlns="http://www.w3.org/2000/svg">
<path d="M25 0C20.0555 0 15.222 1.46622 11.1108 4.21326C6.99953 6.96029 3.79521 10.8648 1.90302 15.4329C0.0108321 20.0011 -0.484251 25.0277 0.480379 29.8772C1.44501 34.7268 3.82603 39.1813 7.32234 42.6777C10.8187 46.174 15.2732 48.555 20.1228 49.5196C24.9723 50.4842 29.9989 49.9892 34.5671 48.097C39.1352 46.2048 43.0397 43.0005 45.7867 38.8892C48.5338 34.778 50 29.9445 50 25C50 21.7169 49.3534 18.466 48.097 15.4329C46.8406 12.3998 44.9991 9.64379 42.6777 7.32233C40.3562 5.00086 37.6002 3.15938 34.5671 1.90301C31.534 0.646644 28.2831 0 25 0ZM25 45C21.0444 45 17.1776 43.827 13.8886 41.6294C10.5996 39.4318 8.03617 36.3082 6.52242 32.6537C5.00867 28.9991 4.6126 24.9778 5.38431 21.0982C6.15601 17.2186 8.06082 13.6549 10.8579 10.8579C13.6549 8.06081 17.2186 6.156 21.0982 5.38429C24.9778 4.61259 28.9992 5.00866 32.6537 6.52241C36.3082 8.03616 39.4318 10.5996 41.6294 13.8886C43.827 17.1776 45 21.0444 45 25C45 30.3043 42.8929 35.3914 39.1421 39.1421C35.3914 42.8929 30.3043 45 25 45Z" fill="#FF5C00"/>
<path d="M31.6083 15.9893L22.3654 28.4799L18.3798 23.2089C18.1823 22.9497 17.9368 22.7328 17.6572 22.5706C17.3777 22.4084 17.0696 22.304 16.7506 22.2634C16.4316 22.2228 16.1079 22.2468 15.7979 22.334C15.488 22.4212 15.1979 22.57 14.9442 22.7717C14.6906 22.9735 14.4783 23.2243 14.3195 23.5099C14.1607 23.7954 14.0585 24.1102 14.0188 24.4361C13.979 24.762 14.0025 25.0927 14.0879 25.4094C14.1733 25.726 14.3189 26.0224 14.5163 26.2816L20.4582 34.0507C20.6885 34.3484 20.9821 34.5886 21.3168 34.7531C21.6515 34.9176 22.0185 35.002 22.3899 35C22.7633 34.999 23.1316 34.9108 23.4664 34.7419C23.8013 34.573 24.0938 34.328 24.3216 34.0257L35.4962 19.037C35.8918 18.507 36.0651 17.8381 35.978 17.1776C35.8908 16.517 35.5504 15.9188 35.0316 15.5147C34.5128 15.1106 33.8581 14.9335 33.2115 15.0225C32.5649 15.1115 31.9795 15.4593 31.5839 15.9893H31.6083Z" fill="#FF5C00"/>
</svg>
